<svg width="20" height="20" viewBox="0 0 20 20" fill="none" xmlns="http://www.w3.org/2000/svg">
<mask id="mask0_421_2034" style="mask-type:luminance" maskUnits="userSpaceOnUse" x="1" y="1" width="18" height="18">
<path fill-rule="evenodd" clip-rule="evenodd" d="M1.66687 1.66684H18.3358V18.3343H1.66687V1.66684Z" fill="white"/>
</mask>
<g mask="url(#mask0_421_2034)">
<path fill-rule="evenodd" clip-rule="evenodd" d="M9.12081 16.7296C9.61247 17.2096 10.4041 17.2038 10.8925 16.7129L11.4941 16.1129C11.9608 15.6471 12.6058 15.3813 13.2633 15.3813H14.1216C14.8166 15.3813 15.3816 14.8163 15.3816 14.1221V13.2646C15.3816 12.5971 15.64 11.9696 16.1116 11.4971L16.7116 10.8963C16.9558 10.6513 17.0866 10.3338 17.0858 9.9971C17.085 9.66127 16.9525 9.34543 16.7133 9.1071L16.1125 8.50543C15.64 8.0296 15.3816 7.40293 15.3816 6.73543V5.8796C15.3816 5.1846 14.8166 4.6196 14.1216 4.6196H13.265C12.5975 4.6196 11.97 4.36043 11.4975 3.89127L10.8958 3.28877C10.395 2.79293 9.59581 2.79543 9.10664 3.28793L8.50747 3.88877C8.02914 4.36127 7.40164 4.6196 6.73664 4.6196H5.87914C5.18497 4.62043 4.61997 5.18543 4.61997 5.8796V6.73377C4.61997 7.40127 4.36081 8.02877 3.89081 8.5021L3.29914 9.0946C3.29331 9.10127 3.28747 9.10627 3.28164 9.1121C2.79247 9.6046 2.79497 10.4038 3.28747 10.8929L3.88914 11.4946C4.36081 11.9679 4.61997 12.5954 4.61997 13.2629V14.1221C4.61997 14.8163 5.18414 15.3813 5.87914 15.3813H6.73497C7.4033 15.3821 8.03081 15.6413 8.50331 16.1121L9.10414 16.7113C9.10914 16.7171 9.11497 16.7229 9.12081 16.7296V16.7296ZM9.99914 18.3346C9.35997 18.3346 8.72081 18.0929 8.23164 17.6079C8.22497 17.6013 8.21831 17.5946 8.21164 17.5871L7.61997 16.9963C7.38414 16.7621 7.06914 16.6321 6.73414 16.6313H5.87914C4.49497 16.6313 3.36997 15.5054 3.36997 14.1221V13.2629C3.36997 12.9279 3.23914 12.6138 3.00414 12.3771L2.40497 11.7788C1.43164 10.8104 1.41997 9.23377 2.37581 8.25043C2.38331 8.24293 2.39081 8.23543 2.39831 8.22793L3.00497 7.6196C3.23914 7.38377 3.36997 7.06793 3.36997 6.73377V5.8796C3.36997 4.49627 4.49497 3.37043 5.87831 3.3696H6.73664C7.07081 3.3696 7.38581 3.23877 7.62497 3.00293L8.22081 2.40543C9.19497 1.4246 10.7875 1.4196 11.77 2.39627L12.3791 3.00543C12.615 3.2396 12.93 3.3696 13.265 3.3696H14.1216C15.5058 3.3696 16.6316 4.49543 16.6316 5.8796V6.73543C16.6316 7.0696 16.7616 7.38543 16.9975 7.62293L17.5958 8.2221C18.07 8.69293 18.3333 9.3221 18.3358 9.99293C18.3383 10.6638 18.0791 11.2946 17.6066 11.7704L16.9958 12.3796C16.7616 12.6154 16.6316 12.9296 16.6316 13.2646V14.1221C16.6316 15.5054 15.5058 16.6313 14.1225 16.6313H13.2633C12.9333 16.6313 12.6108 16.7646 12.3766 16.9971L11.7783 17.5954C11.2891 18.0879 10.6441 18.3346 9.99914 18.3346V18.3346Z" fill="#C67C4E"/>
</g>
<path fill-rule="evenodd" clip-rule="evenodd" d="M7.85868 12.7679C7.69868 12.7679 7.53868 12.7071 7.41701 12.5846C7.17285 12.3404 7.17285 11.9454 7.41701 11.7013L11.7003 7.4171C11.9445 7.17294 12.3403 7.17294 12.5845 7.4171C12.8287 7.66127 12.8287 8.0571 12.5845 8.30127L8.30035 12.5846C8.17868 12.7071 8.01868 12.7679 7.85868 12.7679" fill="#C67C4E"/>
<path fill-rule="evenodd" clip-rule="evenodd" d="M12.0863 12.916C11.6254 12.916 11.2488 12.5435 11.2488 12.0827C11.2488 11.6218 11.6179 11.2493 12.0788 11.2493H12.0863C12.5471 11.2493 12.9196 11.6218 12.9196 12.0827C12.9196 12.5435 12.5471 12.916 12.0863 12.916" fill="#C67C4E"/>
<path fill-rule="evenodd" clip-rule="evenodd" d="M7.91965 8.74934C7.45882 8.74934 7.08215 8.37684 7.08215 7.91601C7.08215 7.45517 7.45132 7.08267 7.91215 7.08267H7.91965C8.38049 7.08267 8.75299 7.45517 8.75299 7.91601C8.75299 8.37684 8.38049 8.74934 7.91965 8.74934" fill="#C67C4E"/>
</svg>
