<svg width="21" height="22" viewBox="0 0 21 22" fill="none" xmlns="http://www.w3.org/2000/svg">
<g filter="url(#filter0_d_421_2057)">
<path d="M9.70387 1.62692H7.52279C5.72904 1.62692 4.60437 2.89684 4.60437 4.69467V9.54451C4.60437 11.3423 5.72379 12.6123 7.52279 12.6123H12.6701C14.4697 12.6123 15.5891 11.3423 15.5891 9.54451V7.19484" stroke="#313131" stroke-linecap="round" stroke-linejoin="round"/>
<path fill-rule="evenodd" clip-rule="evenodd" d="M8.14962 6.37053L12.5089 2.01128C13.0519 1.46878 13.9322 1.46878 14.4753 2.01128L15.1852 2.72119C15.7283 3.26428 15.7283 4.14511 15.1852 4.68761L10.8049 9.06786C10.5675 9.30528 10.2455 9.43886 9.90953 9.43886H7.72437L7.7792 7.23386C7.78737 6.90953 7.91978 6.60036 8.14962 6.37053Z" stroke="#313131" stroke-linecap="round" stroke-linejoin="round"/>
<path d="M11.8464 2.68478L14.5099 5.34828" stroke="#313131" stroke-linecap="round" stroke-linejoin="round"/>
</g>
<defs>
<filter id="filter0_d_421_2057" x="-1" y="0" width="22" height="22" filterUnits="userSpaceOnUse" color-interpolation-filters="sRGB">
<feFlood flood-opacity="0" result="BackgroundImageFix"/>
<feColorMatrix in="SourceAlpha" type="matrix" values="0 0 0 0 0 0 0 0 0 0 0 0 0 0 0 0 0 0 127 0" result="hardAlpha"/>
<feOffset dy="4"/>
<feGaussianBlur stdDeviation="2"/>
<feComposite in2="hardAlpha" operator="out"/>
<feColorMatrix type="matrix" values="0 0 0 0 0 0 0 0 0 0 0 0 0 0 0 0 0 0 0.25 0"/>
<feBlend mode="normal" in2="BackgroundImageFix" result="effect1_dropShadow_421_2057"/>
<feBlend mode="normal" in="SourceGraphic" in2="effect1_dropShadow_421_2057" result="shape"/>
</filter>
</defs>
</svg>
