<svg width="12" height="12" viewBox="0 0 12 12" fill="none" xmlns="http://www.w3.org/2000/svg">
<path d="M6.86502 1.75501L7.74502 3.51501C7.86502 3.76001 8.18502 3.99501 8.45502 4.04001L10.05 4.30501C11.07 4.47501 11.31 5.21501 10.575 5.94501L9.33502 7.18501C9.12502 7.39501 9.01002 7.80001 9.07502 8.09001L9.43002 9.62501C9.71002 10.84 9.06502 11.31 7.99002 10.675L6.49502 9.79001C6.22502 9.63001 5.78002 9.63001 5.50502 9.79001L4.01002 10.675C2.94002 11.31 2.29002 10.835 2.57002 9.62501L2.92502 8.09001C2.99002 7.80001 2.87502 7.39501 2.66502 7.18501L1.42502 5.94501C0.695016 5.21501 0.930016 4.47501 1.95002 4.30501L3.54502 4.04001C3.81002 3.99501 4.13002 3.76001 4.25002 3.51501L5.13002 1.75501C5.61002 0.800007 6.39002 0.800007 6.86502 1.75501Z" fill="#FBBE21"/>
</svg>
